<?xml version="1.0" encoding="iso-8859-1"?>
<!-- Uploaded to: SVG Repo, www.svgrepo.com, Generator: SVG Repo Mixer Tools -->
<!DOCTYPE svg PUBLIC "-//W3C//DTD SVG 1.1//EN" "http://www.w3.org/Graphics/SVG/1.1/DTD/svg11.dtd">
<svg stroke="#000" stroke-width="6" fill="#fa1" height="800px" width="800px" version="1.1" id="Capa_1" xmlns="http://www.w3.org/2000/svg" xmlns:xlink="http://www.w3.org/1999/xlink" 
	 viewBox="0 0 297 297" xml:space="preserve">
<g>
	<path d="M44.517,103.574c0,11.838-6.976,24.876-17.024,29.617c13.231,30.729,31.498,83.696,22.224,111.564
		c-1.253,3.766-0.273,7.915,2.531,10.724c3.005,3.008,21.8,18.015,96.943,18.015c75.12,0,93.909-15.008,96.913-18.017
		c2.804-2.808,3.783-6.956,2.53-10.721c-9.206-27.673,8.807-80.234,22.014-111.054c-10.659-4.485-18.165-17.672-18.165-29.952
		c-25.169,3.448-41.355,14.711-51.055,24.426c-3.088,3.093-5.684,6.183-7.85,9.102c-15.014-26.815-25.17-56.114-30.303-72.783
		c-4.189,2.282-8.988,3.578-14.085,3.578c-5.099,0-9.9-1.295-14.092-3.575c-5.14,16.672-15.305,45.967-30.32,72.78
		c-2.165-2.921-4.762-6.01-7.85-9.102C87.055,118.286,70.468,106.793,44.517,103.574z"/>
	<path d="M282.084,121.323c8.241,0,14.916-6.692,14.916-14.944c0-8.254-6.675-14.945-14.916-14.945
		c-8.242,0-14.919,6.691-14.919,14.945C267.165,114.631,273.842,121.323,282.084,121.323z"/>
	<path d="M149.19,53.392c8.222,0,14.902-6.691,14.902-14.943c0-8.255-6.681-14.942-14.902-14.942
		c-8.248,0-14.929,6.688-14.929,14.942C134.262,46.7,140.942,53.392,149.19,53.392z"/>
	<ellipse cx="14.918" cy="106.378" rx="14.918" ry="14.945"/>
</g>
</svg>